<svg width="74" height="73" viewBox="0 0 74 73" fill="none" xmlns="http://www.w3.org/2000/svg">
<path d="M53.5625 18.3945H39.957V59H33.6289V18.3945H20.0234V13.0508H53.5625V18.3945Z" fill="#8456EC"/>
<path d="M30.832 20.1479V52.0698C30.832 54.0386 30.5391 55.9136 29.9531 57.6948C29.3672 59.4526 28.4766 60.9878 27.2812 62.3003C26.0859 63.6128 24.5859 64.6558 22.7812 65.4292C20.9766 66.2026 18.8555 66.5894 16.418 66.5894C15.5039 66.5894 14.5664 66.519 13.6055 66.3784C12.668 66.2612 11.7539 66.0972 10.8633 65.8862C9.99609 65.6519 9.17578 65.3823 8.40234 65.0776C7.62891 64.7495 6.96094 64.3979 6.39844 64.0229V57.73C7.85156 58.7847 9.45703 59.6167 11.2148 60.2261C12.9961 60.8354 14.7539 61.1401 16.4883 61.1401C19.043 61.1401 21.0117 60.3667 22.3945 58.8198C23.7773 57.2495 24.4688 54.9995 24.4688 52.0698V25.562H6.99609V20.1479H30.832Z" fill="#32FFA8" fill-opacity="0.9"/>
<path d="M43.168 20.0508V51.9727C43.168 53.9414 43.4609 55.8164 44.0469 57.5977C44.6328 59.3555 45.5234 60.8906 46.7188 62.2031C47.9141 63.5156 49.4141 64.5586 51.2188 65.332C53.0234 66.1055 55.1445 66.4922 57.582 66.4922C58.4961 66.4922 59.4336 66.4219 60.3945 66.2812C61.332 66.1641 62.2461 66 63.1367 65.7891C64.0039 65.5547 64.8242 65.2852 65.5977 64.9805C66.3711 64.6523 67.0391 64.3008 67.6016 63.9258V57.6328C66.1484 58.6875 64.543 59.5195 62.7852 60.1289C61.0039 60.7383 59.2461 61.043 57.5117 61.043C54.957 61.043 52.9883 60.2695 51.6055 58.7227C50.2227 57.1523 49.5312 54.9023 49.5312 51.9727V25.4648H67.0039V20.0508H43.168Z" fill="#32FFA8" fill-opacity="0.9"/>
</svg>
